<svg xmlns="http://www.w3.org/2000/svg" xmlns:xlink="http://www.w3.org/1999/xlink" width="670" height="156" viewBox="0 0 670 156">
    <defs>
        <path id="a" d="M0 0h670v156H0z"/>
    </defs>
    <g fill="none" fill-rule="evenodd">
        <mask id="b" fill="#fff">
            <use xlink:href="#a"/>
        </mask>
        <use fill="#1E354A" xlink:href="#a"/>
        <g fill="#FFF" mask="url(#b)" opacity=".65">
            <path d="M49.27 90.83l20.669-41.394c4.338 6.293 10.54 10.37 18.608 12.233 8.067 1.863 15.313 1.42 21.739-1.33l.78 44.757c-11.813 4.176-22.869 5.075-33.168 2.698-10.3-2.378-19.842-8.033-28.628-16.965z" opacity=".4"/>
            <path d="M31.761 48.708l13.703 9.082c-2.407 1.257-4.113 3.268-5.12 6.032-1.006 2.765-1.163 5.34-.472 7.725l-15.818-1.664c-.961-4.346-.8-8.284.485-11.813 1.285-3.53 3.692-6.65 7.222-9.362z" opacity=".6"/>
            <path d="M166.136 150.327l-32.058-21.246c5.632-2.941 9.625-7.646 11.979-14.113 2.353-6.467 2.721-12.49 1.103-18.07l37.006 3.89c2.25 10.169 1.871 19.382-1.134 27.638s-8.637 15.557-16.896 21.9z" opacity=".2"/>
            <path d="M625.262 138.327l-32.058-21.246c5.632-2.941 9.625-7.646 11.979-14.113 2.353-6.467 2.721-12.49 1.103-18.07l37.006 3.89c2.25 10.169 1.871 19.382-1.134 27.638s-8.637 15.557-16.896 21.9z" opacity=".7"/>
            <path d="M85.995 2.035l29.864-6.601c-1.428 4.846-.943 9.73 1.457 14.649 2.399 4.919 5.642 8.457 9.727 10.614l-22.67 19.02c-7.059-4.33-12.12-9.636-15.184-15.916-3.063-6.28-4.128-13.536-3.194-21.766z" opacity=".6"/>
            <path d="M262.224-23.018l23.923 48.166c-8.894-.359-17.042 2.567-24.442 8.777-7.401 6.21-12.082 13.266-14.044 21.17l-42.124-30.546C209.96 10.633 216.896-.29 226.344-8.217c9.448-7.928 21.408-12.861 35.88-14.8z" opacity=".4"/>
            <path d="M179.755 53.529l18.753-4.574c-.868 3.039-.532 6.07 1.009 9.095 1.54 3.024 3.604 5.175 6.189 6.454l-14.148 12.19c-4.47-2.585-7.689-5.808-9.656-9.67-1.967-3.86-2.683-8.359-2.147-13.495z" opacity=".2"/>
            <path d="M206.144 136.577l41.978-14.843c-1.206 7.254.36 14.22 4.697 20.9 4.337 6.678 9.648 11.212 15.933 13.601l-29.385 31.501c-10.967-5-19.218-11.764-24.756-20.29-5.537-8.527-8.36-18.816-8.467-30.869z" opacity=".6"/>
            <path d="M310.645 90.903l-14.757 32.079c-3.53-4.692-8.433-7.648-14.713-8.869-6.28-1.22-11.858-.703-16.738 1.554l-1.891-34.114c8.995-3.477 17.501-4.436 25.518-2.878 8.016 1.558 15.544 5.634 22.581 12.228z" opacity=".2"/>
            <path d="M422.42-22.05l39.85 23.506c-6.58 3.888-11.08 9.791-13.501 17.71-2.42 7.917-2.484 15.177-.188 21.778L403.877 38.6c-3.342-12.075-3.468-23.167-.377-33.275 3.09-10.108 9.397-19.233 18.92-27.375z" opacity=".5"/>
            <path d="M652.793 42.841l11.323-11.917c.82 2.589 2.504 4.619 5.051 6.09 2.548 1.47 5.057 2.072 7.526 1.806l-4.385 15.289c-4.448.192-8.298-.651-11.55-2.53-3.253-1.877-5.908-4.79-7.965-8.738z" opacity=".6"/>
            <path d="M315.411 45.158l23.43-30.497c2.542 5.823 6.956 10.134 13.243 12.933 6.288 2.8 12.271 3.587 17.95 2.362L363.571 66.6c-10.3 1.534-19.464.515-27.49-3.06-8.028-3.573-14.917-9.7-20.67-18.382zM497.371 53.184l4.503 30.252c-4.735-1.763-9.64-1.62-14.715.431-5.075 2.05-8.83 5.039-11.267 8.964L458.499 68.89c4.813-6.74 10.459-11.42 16.937-14.037 6.48-2.618 13.79-3.174 21.935-1.669z" opacity=".4"/>
            <path d="M48.849 134.184l4.502 30.252c-4.735-1.763-9.64-1.62-14.714.431-5.075 2.05-8.831 5.039-11.268 8.964L9.976 149.89c4.813-6.74 10.46-11.42 16.938-14.037 6.479-2.618 13.79-3.174 21.935-1.669zM596.413 65.76l-49.717 20.504c.978-8.848-1.372-17.18-7.05-24.995-5.679-7.816-12.392-12.978-20.14-15.486l33.411-39.89c13.574 5.382 23.985 13.063 31.234 23.04 7.25 9.979 11.337 22.254 12.262 36.826zM474.556 140.04l3.254 19.027c-2.97-1.079-6.018-.955-9.142.371-3.125 1.327-5.415 3.234-6.87 5.724l-11.175-14.964c2.891-4.279 6.331-7.265 10.32-8.958 3.99-1.693 8.527-2.093 13.613-1.2z" opacity=".2"/>
            <path d="M403.06 95.493l11.878 42.911c-7.152-1.71-14.21-.633-21.176 3.227-6.965 3.861-11.858 8.843-14.68 14.946l-29.374-31.51c5.753-10.592 13.076-18.351 21.968-23.28 8.892-4.93 19.353-7.027 31.383-6.294zM558.412 155.21l-30.97-16.96c4.926-3.193 8.217-7.88 9.872-14.058 1.656-6.18 1.529-11.781-.382-16.806l34.162.493c2.842 9.216 3.205 17.768 1.092 25.657-2.114 7.888-6.705 15.113-13.774 21.673z" opacity=".5"/>
        </g>
    </g>
</svg>
