<svg xmlns="http://www.w3.org/2000/svg" width="44" height="60" viewBox="0 0 44 60">
    <g fill="none" fill-rule="evenodd">
        <g stroke="#555" stroke-width="1.5">
            <path fill="#FFF" stroke-linecap="round" stroke-linejoin="round" d="M1 5.328A2.33 2.33 0 0 1 3.327 3H29l14 14v38.678A2.32 2.32 0 0 1 40.682 58H3.318A2.328 2.328 0 0 1 1 55.672V5.328z"/>
            <path d="M29 3v11.672A2.327 2.327 0 0 0 31.328 17H43"/>
        </g>
        <path fill="#2D7B52" d="M8 24.76h8v4.547H8zM18 24.76h8v4.547h-8zM28 24.76h8v4.547h-8zM8 30.607h8v4.547H8zM18 30.607h8v4.547h-8zM28 30.607h8v4.547h-8zM8 36.453h8V41H8zM18 36.453h8V41h-8zM28 36.453h8V41h-8z"/>
    </g>
</svg>
