<svg xmlns="http://www.w3.org/2000/svg" xmlns:xlink="http://www.w3.org/1999/xlink" width="24" height="24" viewBox="0 0 24 24">
    <defs>
        <path id="a" d="M6 12h12v7a2 2 0 0 1-2 2H8a2 2 0 0 1-2-2v-7zm6 6a1.5 1.5 0 1 0 0-3 1.5 1.5 0 0 0 0 3z"/>
    </defs>
    <g fill="none" fill-rule="evenodd">
        <path stroke="#555" stroke-width="1.5" d="M8.75 11.75h6.5V7a3.25 3.25 0 0 0-6.5 0v4.75z"/>
        <use fill="#555" xlink:href="#a"/>
        <path stroke="#555" stroke-width="1.5" d="M6.75 12.75V19c0 .69.56 1.25 1.25 1.25h8c.69 0 1.25-.56 1.25-1.25v-6.25H6.75zm5.25 6a2.25 2.25 0 1 1 0-4.5 2.25 2.25 0 0 1 0 4.5z"/>
    </g>
</svg>
