<svg xmlns="http://www.w3.org/2000/svg" width="62" height="54" viewBox="0 0 62 54">
    <g fill="none" fill-rule="evenodd">
        <path d="M-1-6h64v64H-1z"/>
        <g fill="#FFF">
            <path d="M6.38 19.794a15.18 15.18 0 0 1 2.554-4.572l-2.059-5.45 7.403-4.274 3.897 4.348a15.172 15.172 0 0 1 5.1.014l3.555-4.347 7.413 4.291-1.763 5.42a15.386 15.386 0 0 1 2.579 4.566l5.473.906.01 8.566-5.649 1.186a15.167 15.167 0 0 1-2.367 4.064l2.06 5.45-7.404 4.274-3.897-4.347a15.166 15.166 0 0 1-4.844.028l-3.81 4.66-7.414-4.292 1.846-5.674a15.377 15.377 0 0 1-2.424-4.045l-6.017-.995-.01-8.566 5.767-1.211zM25.015 32.29c4.089-2.36 5.484-7.598 3.117-11.697-2.367-4.1-7.6-5.51-11.689-3.149-4.088 2.36-5.484 7.598-3.117 11.697 2.367 4.1 7.6 5.51 11.689 3.15z" opacity=".9"/>
            <path d="M53.856 7.867l3.224 1.196-.835 5.094-3.07.327a7.475 7.475 0 0 1-1.574 1.761l-.165 3.254-5.095.835-1.149-2.636a7.193 7.193 0 0 1-2.382-1.07l-2.986.838-2.314-4.578 2.182-1.95a7.388 7.388 0 0 1 .34-2.513l-1.74-2.652 3.664-3.664 2.69 1.558a7.388 7.388 0 0 1 2.17-.413L48.956.58l4.58 2.314-.703 3.162a7.177 7.177 0 0 1 1.023 1.812zm-3.941 5.61c1.618-1.619 1.633-4.23.032-5.83-1.601-1.601-4.212-1.587-5.83.032-1.62 1.62-1.634 4.23-.033 5.83 1.601 1.602 4.212 1.587 5.83-.032z" opacity=".5"/>
            <path d="M56.96 35.622l4.315.422.675 6.44-3.623 1.375a9.25 9.25 0 0 1-1.33 2.638l.878 3.997-5.915 2.635-2.27-2.828a9.144 9.144 0 0 1-3.25-.537l-3.352 1.968-4.331-4.812 2.005-3.06a9.246 9.246 0 0 1-.419-3.154l-2.995-2.659 3.24-5.61 3.786 1.032a9.231 9.231 0 0 1 2.5-1.193l1.715-3.925 6.332 1.345.195 4.056a9.14 9.14 0 0 1 1.844 1.87zm-2.93 8.057a5.18 5.18 0 0 0-1.894-7.077A5.18 5.18 0 0 0 45.06 38.5a5.18 5.18 0 0 0 1.894 7.077 5.18 5.18 0 0 0 7.076-1.898z" opacity=".7"/>
        </g>
    </g>
</svg>
