<svg xmlns="http://www.w3.org/2000/svg" width="48" height="48" viewBox="0 0 48 48">
    <g fill="none" fill-rule="evenodd">
        <circle cx="24" cy="24" r="24" fill="#1E354A"/>
        <g fill="#FFF" fill-rule="nonzero">
            <path d="M15.018 16H10v16h5.466C19.994 32 24 29.218 24 24.043c0-5.837-4.085-8.05-8.984-8.043h.002zm.068 12.748h-1.74v-9.496h1.973c2.83 0 5.22 1.476 5.22 4.612-.008 3.627-2.345 4.887-5.465 4.884h.012zM36.06 27.1c.386-.627.578-1.317.578-1.691 0-3.012-8.716-1.884-8.716-3.575 0-1.518 5.455-4.14 8.652-4.14.448 0 3.394.18 3.394 1.19 0 .376-.64.503-.64.876 0 .378.325.437.71.438.578 0 .962-.503.962-1.13-.005-2.55-2.278-3.068-4.107-3.068-4.714 0-10.318 4.014-10.318 5.834 0 2.386 7.946 1.949 7.946 4.076 0 1.597-3.293 3.099-5.785 4.157l-.46.194c-1.295.556-2.276.954-2.276 1.166 0 .637.447.577.955.567 1.259 0 3.263-.747 5.341-1.733 1.972-.936 2.993-1.905 3.764-3.16z"/>
        </g>
    </g>
</svg>
