<?xml version="1.0" encoding="UTF-8" standalone="no"?>
<svg width="12px" height="12px" viewBox="0 0 12 12" version="1.1" xmlns="http://www.w3.org/2000/svg" xmlns:xlink="http://www.w3.org/1999/xlink">
    <!-- Generator: Sketch 39.1 (31720) - http://www.bohemiancoding.com/sketch -->
    <title>icon-chat</title>
    <desc>Created with Sketch.</desc>
    <defs></defs>
    <g id="Dashboard" stroke="none" stroke-width="1" fill="none" fill-rule="evenodd">
        <g id="Dashboard@2x" transform="translate(-340.000000, -383.000000)" fill="#54E68A">
            <path d="M344.279221,391.972581 L344.627054,391.624748 L345.114882,391.687985 C345.423194,391.727951 345.72539,391.75 346,391.75 C348.808611,391.75 351,389.968479 351,387.875 C351,385.781521 348.808611,384 346,384 C343.191389,384 341,385.781521 341,387.875 C341,389.079775 341.726058,390.21208 342.983195,390.958505 L343.552511,391.296536 L343.463599,391.952646 C343.380359,392.566897 343.188003,393.124807 342.919211,393.622794 C342.832187,393.784022 342.701564,393.982843 342.588207,394.145243 C342.554102,394.153752 342.519777,394.161801 342.485238,394.169368 C342.509837,394.064349 342.506984,393.96147 342.485136,393.868617 L341.511719,394.097656 L342.436397,393.716906 C342.344652,393.494098 342.165719,393.343705 341.963418,393.28181 C341.971899,393.267491 341.980414,393.252902 341.988951,393.238045 C342.785108,393.158141 343.5688,392.683002 344.279221,391.972581 Z M346,392.75 C345.654297,392.75 345.302734,392.720703 344.986328,392.679688 C344.359375,393.306641 343.193359,394.25 341.751953,394.25 C341.652344,394.25 341.552734,394.197266 341.511719,394.097656 C341.488281,393.998047 341.5,393.886719 341.570312,393.822266 C341.582031,393.804688 342.302734,393.072266 342.472656,391.818359 C340.972656,390.927734 340,389.498047 340,387.875 C340,385.179688 342.677734,383 346,383 C349.322266,383 352,385.179688 352,387.875 C352,390.570312 349.322266,392.75 346,392.75 Z" id="icon-chat"></path>
        </g>
    </g>
</svg>