<svg xmlns="http://www.w3.org/2000/svg" viewBox="0 0 256 256"><defs><style>.cls-1{fill:#fff;}.cls-2{fill:#231f20;}.cls-3{opacity:0.25;}</style></defs><title>IconsSVG Export</title><g id="Layer_2" data-name="Layer 2"><rect class="cls-1" x="40" y="20" width="136" height="176" rx="11.44" ry="11.44"/><path class="cls-2" d="M164.56,200H51.44A15.45,15.45,0,0,1,36,184.56V31.44A15.45,15.45,0,0,1,51.44,16H164.56A15.45,15.45,0,0,1,180,31.44V184.56A15.45,15.45,0,0,1,164.56,200ZM51.44,24A7.44,7.44,0,0,0,44,31.44V184.56A7.44,7.44,0,0,0,51.44,192H164.56a7.44,7.44,0,0,0,7.44-7.44V31.44A7.44,7.44,0,0,0,164.56,24Z"/><rect class="cls-1" x="60" y="40" width="136" height="176" rx="11.44" ry="11.44"/><path class="cls-2" d="M184.56,220H71.44A15.45,15.45,0,0,1,56,204.56V51.44A15.45,15.45,0,0,1,71.44,36H184.56A15.45,15.45,0,0,1,200,51.44V204.56A15.45,15.45,0,0,1,184.56,220ZM71.44,44A7.44,7.44,0,0,0,64,51.44V204.56A7.44,7.44,0,0,0,71.44,212H184.56a7.44,7.44,0,0,0,7.44-7.44V51.44A7.44,7.44,0,0,0,184.56,44Z"/><path class="cls-1" d="M170.41,98.14V69.66l35.93,35.92H177.85A7.45,7.45,0,0,1,170.41,98.14Z"/><path class="cls-1" d="M212,113.58v111a7.45,7.45,0,0,1-7.44,7.44H91.44A7.45,7.45,0,0,1,84,224.56V71.44A7.45,7.45,0,0,1,91.44,64h71V98.14a15.46,15.46,0,0,0,15.44,15.44Z"/><path class="cls-2" d="M218.83,106.75,169.24,57.17,168.07,56H91.44A15.45,15.45,0,0,0,76,71.44V224.56A15.46,15.46,0,0,0,91.44,240H204.56A15.46,15.46,0,0,0,220,224.56V107.92Zm-12.49-1.17H177.85a7.45,7.45,0,0,1-7.44-7.44V69.66Zm5.66,119a7.45,7.45,0,0,1-7.44,7.44H91.44A7.45,7.45,0,0,1,84,224.56V71.44A7.45,7.45,0,0,1,91.44,64h71V98.14a15.46,15.46,0,0,0,15.44,15.44H212Z"/><g class="cls-3"><path class="cls-2" d="M140.79,116.58H110.38a7,7,0,0,1,0-14h30.41a7,7,0,0,1,0,14Z"/></g><g class="cls-3"><path class="cls-2" d="M185.6,154.73H110.2a7,7,0,0,1,0-14h75.4a7,7,0,0,1,0,14Z"/></g><g class="cls-3"><path class="cls-2" d="M185.6,192.88H110.2a7,7,0,1,1,0-14h75.4a7,7,0,0,1,0,14Z"/></g></g></svg>