<?xml version="1.0" encoding="UTF-8" standalone="no"?>
<svg width="14px" height="10px" viewBox="0 0 14 10" version="1.1" xmlns="http://www.w3.org/2000/svg" xmlns:xlink="http://www.w3.org/1999/xlink">
    <!-- Generator: Sketch 39.1 (31720) - http://www.bohemiancoding.com/sketch -->
    <title>view</title>
    <desc>Created with Sketch.</desc>
    <defs></defs>
    <g id="Deals-/-Deal" stroke="none" stroke-width="1" fill="none" fill-rule="evenodd">
        <g id="Deal---Overview@2x" transform="translate(-410.000000, -151.000000)" stroke="#FDA618">
            <g id="Overview" transform="translate(200.000000, 120.000000)">
                <path d="M222.95752,35.8613281 L222.928223,35.8203125 C222.928223,35.8203125 220.373535,32 216.998535,32 C213.623535,32 211.039551,35.8613281 211.039551,35.8613281 C210.986816,35.9492188 210.986816,36.0546875 211.039551,36.1425781 C211.039551,36.1425781 213.623535,40.0039062 216.998535,40.0039062 C220.373535,40.0039062 222.95752,36.1425781 222.95752,36.1425781 C223.010254,36.0546875 223.010254,35.9492188 222.95752,35.8613281 L222.95752,35.8613281 Z M216.998535,38.2519531 C215.750488,38.2519531 214.748535,37.25 214.748535,36.0019531 C214.748535,34.765625 215.750488,33.7519531 216.998535,33.7519531 C218.234863,33.7519531 219.248535,34.765625 219.248535,36.0019531 C219.248535,37.25 218.234863,38.2519531 216.998535,38.2519531 L216.998535,38.2519531 Z" id="view"></path>
            </g>
        </g>
    </g>
</svg>