<?xml version="1.0" encoding="UTF-8" standalone="no"?>
<svg width="9px" height="12px" viewBox="0 0 9 12" version="1.1" xmlns="http://www.w3.org/2000/svg" xmlns:xlink="http://www.w3.org/1999/xlink">
    <!-- Generator: Sketch 39.1 (31720) - http://www.bohemiancoding.com/sketch -->
    <title>icon-document-small</title>
    <desc>Created with Sketch.</desc>
    <defs></defs>
    <g id="Dashboard" stroke="none" stroke-width="1" fill="none" fill-rule="evenodd">
        <g id="Dashboard@2x" transform="translate(-220.000000, -382.000000)" fill="#0BADFF">
            <path d="M228,386.001953 C228,386.185486 228.060686,386.331847 228.140335,386.434253 L228.929688,385.820312 L228.222581,386.527419 L224.472581,382.777419 L225.179688,382.070312 L224.565747,382.859665 C224.668153,382.939314 224.814514,383 224.998047,383 L220.75,383 C220.886269,383 221,382.886269 221,382.75 L221,393.25 C221,393.113731 220.886269,393 220.75,393 L228.25,393 C228.113731,393 228,393.113731 228,393.25 L228,386.001953 Z M229,393.25 C229,393.666016 228.666016,394 228.25,394 L220.75,394 C220.333984,394 220,393.666016 220,393.25 L220,382.75 C220,382.333984 220.333984,382 220.75,382 L224.998047,382 C225.068359,382 225.126953,382.029297 225.179688,382.070312 L228.929688,385.820312 C228.970703,385.873047 229,385.931641 229,386.001953 L229,393.25 Z" id="icon-document-small"></path>
        </g>
    </g>
</svg>