<?xml version="1.0" encoding="UTF-8" standalone="no"?>
<svg width="16px" height="12px" viewBox="0 0 16 12" version="1.1" xmlns="http://www.w3.org/2000/svg" xmlns:xlink="http://www.w3.org/1999/xlink">
    <!-- Generator: Sketch 39.1 (31720) - http://www.bohemiancoding.com/sketch -->
    <title>Icons / Folder Icon Open</title>
    <desc>Created with Sketch.</desc>
    <defs>
        <path d="M15.2415888,4.28571429 C15.5280373,4.28571429 15.7402665,4.36495456 15.8782826,4.5234375 C16.0162987,4.68192044 16.041037,4.87276674 15.9524984,5.09598214 L13.4994698,11.1897321 C13.4109311,11.4129475 13.2338565,11.6037939 12.9682406,11.7622768 C12.7026247,11.9207597 12.4265967,12 12.1401481,12 L0.757782735,12 C0.528623924,12 0.34634124,11.9464291 0.210929215,11.8392857 C0.07551719,11.7321423 0.00781219314,11.595983 0.00781219314,11.4308036 L0,11.4375 L0,0.669642857 C0,0.486606228 0.076819131,0.32924173 0.230459698,0.197544643 C0.384100264,0.0658475558 0.567684967,0 0.781219314,0 L3.99984289,0 L5.99976433,1.71428571 L12.9994894,1.71428571 L12.9994894,4.28571429 L15.2415888,4.28571429 Z M0.999960722,0.857142857 L0.999960722,10.1316964 L2.96863339,5.23660714 C3.0259231,5.09821359 3.14440684,4.97656302 3.32408818,4.87165179 C3.50376952,4.76674055 3.68214615,4.71428571 3.85922341,4.71428571 L11.9995287,4.71428571 L11.9995287,2.57142857 L5.5857181,2.57142857 L3.58579665,0.857142857 L0.999960722,0.857142857 Z M12.5541944,10.9084821 L14.8744157,5.14285714 L11.9995287,5.14285714 L3.85922341,5.14285714 C3.78630925,5.14285714 3.70298002,5.16964259 3.60923323,5.22321429 C3.51548645,5.27678598 3.4581976,5.32812475 3.43736498,5.37723214 L1.12495581,11.1428571 L12.1401481,11.1428571 C12.2130623,11.1428571 12.2950895,11.1160717 12.3862322,11.0625 C12.4773749,11.0089283 12.5333618,10.9575895 12.5541944,10.9084821 L12.5541944,10.9084821 Z" id="path-1"></path>
        <mask id="mask-2" maskContentUnits="userSpaceOnUse" maskUnits="objectBoundingBox" x="0" y="0" width="16.0044005" height="12" fill="white">
            <use xlink:href="#path-1"></use>
        </mask>
    </defs>
    <g id="Symbols" stroke="none" stroke-width="1" fill="none" fill-rule="evenodd">
        <g id="Icons-/-Folder-Icon-Open">
            <use id="folder" stroke="#4A90E2" mask="url(#mask-2)" stroke-width="2" fill="#ECF4FD" xlink:href="#path-1"></use>
            <path d="M14.8744157,5.14285714 L11.9995287,5.14285714 L3.85922341,5.14285714 C3.93213758,5.14285714 3.70298002,5.16964259 3.60923323,5.22321429 C3.51548645,5.27678598 3.4581976,5.32812475 3.43736498,5.37723214 L1.12495581,11.1428571 L12.1401481,11.1428571 C12.2130623,11.1428571 12.2950895,11.1160717 12.3862322,11.0625 C12.4773749,11.0089283 12.5333618,10.9575895 12.5541944,10.9084821 L14.8744157,5.14285714 Z" id="Path-Copy" fill="#ECF4FD"></path>
            <path d="M0.999960722,0.857142857 L0.999960722,10.1316964 L2.96863339,5.23660714 C3.0259231,5.09821359 3.14440684,4.97656302 3.32408818,4.87165179 C3.50376952,4.76674055 3.68214615,4.71428571 3.85922341,4.71428571 L11.9995287,4.71428571 L11.9995287,2.57142857 L5.5857181,2.57142857 L3.58579665,0.857142857 L0.999960722,0.857142857 Z" id="Path-Copy-2" fill="#ECF4FD"></path>
            <polyline id="Path-2" stroke="#4A90E2" points="0.95690918 11.3234253 3.05322266 4.78717041 15.0126829 4.78717041"></polyline>
        </g>
    </g>
</svg>