<?xml version="1.0" encoding="UTF-8" standalone="no"?>
<svg width="20px" height="20px" viewBox="0 0 20 20" version="1.1" xmlns="http://www.w3.org/2000/svg" xmlns:xlink="http://www.w3.org/1999/xlink">
    <!-- Generator: Sketch 39.1 (31720) - http://www.bohemiancoding.com/sketch -->
    <title>Group 4</title>
    <desc>Created with Sketch.</desc>
    <defs>
        <circle id="path-1" cx="10" cy="10" r="10"></circle>
        <mask id="mask-2" maskContentUnits="userSpaceOnUse" maskUnits="objectBoundingBox" x="0" y="0" width="20" height="20" fill="white">
            <use xlink:href="#path-1"></use>
        </mask>
    </defs>
    <g id="Symbols" stroke="none" stroke-width="1" fill="none" fill-rule="evenodd">
        <g id="Group-4">
            <g id="Group" stroke="#000000" stroke-opacity="0.195029438" stroke-width="2" fill="#54E68A">
                <use id="Oval" mask="url(#mask-2)" xlink:href="#path-1"></use>
            </g>
            <path d="M10,5 C6.67773438,5 4,7.1796875 4,9.875 C4,11.4980469 4.97265625,12.9277344 6.47265625,13.8183594 C6.30273438,15.0722656 5.58203125,15.8046875 5.5703125,15.8222656 C5.5,15.8867188 5.48828125,15.9980469 5.51171875,16.0976562 C5.55273438,16.1972656 5.65234375,16.25 5.75195312,16.25 C7.19335938,16.25 8.359375,15.3066406 8.98632812,14.6796875 C9.30273438,14.7207031 9.65429688,14.75 10,14.75 C13.3222656,14.75 16,12.5703125 16,9.875 C16,7.1796875 13.3222656,5 10,5 Z" id="chat" fill="#FFFFFF"></path>
        </g>
    </g>
</svg>