<?xml version="1.0" encoding="UTF-8" standalone="no"?>
<svg width="12px" height="12px" viewBox="0 0 12 12" version="1.1" xmlns="http://www.w3.org/2000/svg" xmlns:xlink="http://www.w3.org/1999/xlink">
    <!-- Generator: Sketch 39.1 (31720) - http://www.bohemiancoding.com/sketch -->
    <title>icon-pencil</title>
    <desc>Created with Sketch.</desc>
    <defs></defs>
    <g id="Dashboard" stroke="none" stroke-width="1" fill="none" fill-rule="evenodd">
        <g id="Dashboard@2x" transform="translate(-459.000000, -383.000000)" fill="#ABA1E0">
            <path d="M462.619455,392.545372 C462.650446,392.514382 462.689978,392.490223 462.718954,392.478633 L460.102065,393.523435 C460.175568,393.499755 460.198628,393.497559 460.209337,393.497559 C460.279676,393.497559 460.333611,393.519922 460.36494,393.544289 C460.49532,393.669209 460.511857,393.760162 460.494213,393.83074 L461.518421,391.277682 C461.506711,391.306956 461.482553,391.346488 461.451562,391.377479 L466.602929,386.226112 L465.895822,386.226112 L467.770822,388.101112 L467.770822,387.394005 L462.619455,392.545372 Z M468.831483,387.747559 L468.477929,387.394005 L466.602929,385.519005 L466.249376,385.165452 L465.895822,385.519005 L460.744455,390.670372 C460.670217,390.744611 460.625058,390.818506 460.589825,390.90659 L459.544784,393.524076 C459.463251,393.831481 459.512112,394.100214 459.704416,394.292518 C459.881697,394.435295 460.031862,394.497559 460.209337,394.497559 C460.283523,394.497559 460.343203,394.491875 460.424822,394.468555 L463.090046,393.407229 C463.178428,393.371876 463.252323,393.326718 463.326562,393.252479 L468.477929,388.101112 L468.831483,387.747559 Z M469.450132,385.507661 C469.510845,385.572016 469.510845,385.653983 469.460276,385.704552 L468.395822,386.769005 L469.102929,386.769005 L467.227929,384.894005 L467.227929,385.601112 L468.292382,384.536659 C468.342951,384.48609 468.424918,384.48609 468.489273,384.546802 L469.460276,385.518104 L469.450132,385.507661 Z M470.167382,384.810997 L469.185937,383.829552 C468.722271,383.39184 468.022988,383.39184 467.585276,383.829552 L466.520822,384.894005 L466.167269,385.247559 L466.520822,385.601112 L468.395822,387.476112 L468.749376,387.829665 L469.102929,387.476112 L470.167382,386.411659 C470.605095,385.973947 470.605095,385.274663 470.177526,384.821441 L470.167382,384.810997 Z" id="icon-pencil"></path>
        </g>
    </g>
</svg>