<svg xmlns="http://www.w3.org/2000/svg" viewBox="0 0 256 256"><defs><style>.cls-1{fill:#fff;}.cls-2,.cls-3,.cls-4,.cls-5,.cls-6,.cls-7{fill:none;stroke:#b8b7b7;stroke-linecap:round;stroke-width:4px;}.cls-2,.cls-3,.cls-4{stroke-miterlimit:10;}.cls-2{stroke-dasharray:12.09 8.06;}.cls-4{stroke-dasharray:11.77 7.84;}.cls-5,.cls-6,.cls-7{stroke-linejoin:bevel;}.cls-6{stroke-dasharray:10.26 6.84;}.cls-7{stroke-dasharray:11.22 7.48;}</style></defs><title>Client - no signature packets</title><g id="Layer_2" data-name="Layer 2"><rect class="cls-1" x="40" y="20" width="136" height="176" rx="11.44" ry="11.44"/><rect class="cls-2" x="40" y="20" width="136" height="176" rx="11.44" ry="11.44"/><rect class="cls-1" x="60" y="40" width="136" height="176" rx="11.44" ry="11.44"/><rect class="cls-2" x="60" y="40" width="136" height="176" rx="11.44" ry="11.44"/><path class="cls-1" d="M216,109.58v115A11.44,11.44,0,0,1,204.56,236H91.44A11.44,11.44,0,0,1,80,224.56V71.44A11.43,11.43,0,0,1,91.44,60h75"/><line class="cls-3" x1="216" y1="109.58" x2="216" y2="115.58"/><path class="cls-4" d="M216,123.42V224.56A11.44,11.44,0,0,1,204.56,236H91.44A11.44,11.44,0,0,1,80,224.56V71.44A11.43,11.43,0,0,1,91.44,60h65.05"/><line class="cls-3" x1="160.41" y1="60" x2="166.41" y2="60"/><polyline class="cls-5" points="166.41 66 166.41 60 170.66 64.24"/><line class="cls-6" x1="175.49" y1="69.08" x2="209.34" y2="102.92"/><polyline class="cls-5" points="211.76 105.33 216 109.58 210 109.58"/><path class="cls-7" d="M202.52,109.58H177.85a11.43,11.43,0,0,1-11.44-11.44V69.74"/></g></svg>
