<?xml version="1.0" encoding="UTF-8" standalone="no"?>
<svg width="12px" height="12px" viewBox="0 0 12 12" version="1.1" xmlns="http://www.w3.org/2000/svg" xmlns:xlink="http://www.w3.org/1999/xlink">
    <!-- Generator: Sketch 39.1 (31720) - http://www.bohemiancoding.com/sketch -->
    <title>attach</title>
    <desc>Created with Sketch.</desc>
    <defs></defs>
    <g id="Symbols" stroke="none" stroke-width="1" fill="none" fill-rule="evenodd">
        <g id="Icons-/-Attached-File-Icon" transform="translate(0.000000, -2.000000)" fill="#B6B6B6">
            <path d="M9.94314993,6.52799805 C10.2769306,6.99646212 10.470172,7.5410516 10.499451,8.09735269 L11.0381847,7.55276321 C12.3206051,6.27619861 12.3206051,4.22081249 11.0381847,2.9618153 C9.77918751,1.6793949 7.72380139,1.6793949 6.44723679,2.9618153 L0.948639746,8.45455655 C-0.316213249,9.71940954 -0.316213249,11.7747957 0.948639746,13.0513603 C2.22520434,14.3162132 4.28059046,14.3162132 5.54544345,13.0513603 L8.91838477,9.67841893 C9.69720629,8.89959741 9.69720629,7.63474442 8.91838477,6.8442113 C8.13956325,6.07124558 6.87471026,6.07124558 6.08417714,6.8442113 L3.97608881,8.96986702 C3.67158717,9.26265707 3.67158717,9.73112114 3.97608881,10.0239112 C4.26887886,10.3284128 4.73734293,10.3284128 5.03013298,10.0239112 L7.1557887,7.91582286 C7.34903013,7.72258143 7.66524338,7.72258143 7.86434061,7.91582286 C8.05758204,8.10906429 8.05758204,8.42527754 7.86434061,8.62437477 L4.49139929,11.9797487 C3.80627059,12.6590216 2.69952422,12.6590216 2.02025131,11.9797487 C1.34097841,11.3004758 1.34097841,10.1937294 2.02025131,9.50860071 L7.51299256,4.01585946 C8.19812126,3.33658656 9.30486763,3.33658656 9.98414054,4.01585946 C10.6634134,4.69513237 10.6634134,5.80187874 9.98414054,6.48700744 L9.94314993,6.52799805 Z" id="attach"></path>
        </g>
    </g>
</svg>