<?xml version="1.0" encoding="UTF-8" standalone="no"?>
<svg width="17px" height="16px" viewBox="0 0 17 16" version="1.1" xmlns="http://www.w3.org/2000/svg" xmlns:xlink="http://www.w3.org/1999/xlink">
    <!-- Generator: Sketch 39.1 (31720) - http://www.bohemiancoding.com/sketch -->
    <title>Icons / Add Document Icon</title>
    <desc>Created with Sketch.</desc>
    <defs>
        <path d="M12,5.3359375 C12,5.2421875 11.9609375,5.1640625 11.90625,5.09375 L6.90625,0.09375 C6.8359375,0.0390625 6.7578125,0 6.6640625,0 L1,0 C0.4453125,0 0,0.4453125 0,1 L0,15 C0,15.5546875 0.4453125,16 1,16 L11,16 C11.5546875,16 12,15.5546875 12,15 L12,5.3359375 Z" id="path-1"></path>
        <mask id="mask-2" maskContentUnits="userSpaceOnUse" maskUnits="objectBoundingBox" x="0" y="0" width="12" height="16" fill="white">
            <use xlink:href="#path-1"></use>
        </mask>
    </defs>
    <g id="Symbols" stroke="none" stroke-width="1" fill="none" fill-rule="evenodd">
        <g id="Icons-/-Add-Document-Icon">
            <g id="Icons-/-File-Icon" stroke="#B6B6B6" stroke-width="2" fill="#F8F8F8">
                <use id="file" mask="url(#mask-2)" xlink:href="#path-1"></use>
            </g>
            <g id="Icons-/-Add-Task-Icon" transform="translate(7.000000, 0.000000)">
                <rect id="Rectangle-4-Copy-6" fill="#4990E2" x="0" y="0" width="10" height="10" rx="5"></rect>
                <path d="M5.52001953,7.5 C5.57861328,7.5 5.625,7.45361328 5.625,7.39501953 L5.625,5.625 L7.39501953,5.625 C7.45361328,5.625 7.5,5.57861328 7.5,5.52001953 L7.5,4.47998047 C7.5,4.42138672 7.45361328,4.375 7.39501953,4.375 L5.625,4.375 L5.625,2.60498047 C5.625,2.54638672 5.57861328,2.5 5.52001953,2.5 L4.47998047,2.5 C4.42138672,2.5 4.375,2.54638672 4.375,2.60498047 L4.375,4.375 L2.60498047,4.375 C2.54638672,4.375 2.5,4.42138672 2.5,4.47998047 L2.5,5.52001953 C2.5,5.57861328 2.54638672,5.625 2.60498047,5.625 L4.375,5.625 L4.375,7.39501953 C4.375,7.45361328 4.42138672,7.5 4.47998047,7.5 L5.52001953,7.5 Z" id="plus" fill="#FFFFFF"></path>
            </g>
        </g>
    </g>
</svg>