<?xml version="1.0" encoding="UTF-8" standalone="no"?>
<svg width="20px" height="20px" viewBox="0 0 20 20" version="1.1" xmlns="http://www.w3.org/2000/svg" xmlns:xlink="http://www.w3.org/1999/xlink">
    <!-- Generator: Sketch 39.1 (31720) - http://www.bohemiancoding.com/sketch -->
    <title>Group 25</title>
    <desc>Created with Sketch.</desc>
    <defs>
        <circle id="path-1" cx="10" cy="10" r="10"></circle>
        <mask id="mask-2" maskContentUnits="userSpaceOnUse" maskUnits="objectBoundingBox" x="0" y="0" width="20" height="20" fill="white">
            <use xlink:href="#path-1"></use>
        </mask>
    </defs>
    <g id="Deals-/-Deal" stroke="none" stroke-width="1" fill="none" fill-rule="evenodd">
        <g id="Deal---Overview@2x" transform="translate(-210.000000, -235.000000)">
            <g id="Activity" transform="translate(200.000000, 230.000000)">
                <g id="Group-14">
                    <g id="Group-13">
                        <g id="Group-25" transform="translate(10.000000, 5.000000)">
                            <use id="Oval" stroke-opacity="0.195029438" stroke="#000000" mask="url(#mask-2)" stroke-width="2" fill="#ABA1E0" xlink:href="#path-1"></use>
                            <path d="M13.6041667,8.75 L8.45279948,13.9013672 C8.42838542,13.9257812 8.40885417,13.9355469 8.3844401,13.9453125 L5.7672526,14.9902344 C5.73307292,15 5.70865885,15 5.6891276,15 C5.63053385,15 5.58170573,14.9755859 5.53776042,14.9414062 C5.47916667,14.8828125 5.46940104,14.7900391 5.48893229,14.7119141 L6.53385417,12.0947266 C6.54361979,12.0703125 6.55338542,12.0507812 6.57779948,12.0263672 L11.7291667,6.875 L13.6041667,8.75 Z M15.2936198,6.16699219 C15.5377604,6.42578125 15.5377604,6.81640625 15.2936198,7.06054688 L14.2291667,8.125 L12.3541667,6.25 L13.4186198,5.18554688 C13.6627604,4.94140625 14.0533854,4.94140625 14.3121745,5.18554688 L15.2936198,6.16699219 L15.2936198,6.16699219 Z" id="pencil" fill="#FFFFFF"></path>
                        </g>
                    </g>
                </g>
            </g>
        </g>
    </g>
</svg>