<?xml version="1.0" encoding="UTF-8" standalone="no"?>
<svg width="20px" height="20px" viewBox="0 0 20 20" version="1.1" xmlns="http://www.w3.org/2000/svg" xmlns:xlink="http://www.w3.org/1999/xlink">
    <!-- Generator: Sketch 39.1 (31720) - http://www.bohemiancoding.com/sketch -->
    <title>Group 24</title>
    <desc>Created with Sketch.</desc>
    <defs>
        <path d="M10,20 C15.5228475,20 20,15.5228475 20,10 C20,4.4771525 15.5228475,0 10,0 C4.4771525,0 0,4.4771525 0,10 C0,15.5228475 4.4771525,20 10,20 Z" id="path-1"></path>
        <mask id="mask-2" maskContentUnits="userSpaceOnUse" maskUnits="objectBoundingBox" x="0" y="0" width="20" height="20" fill="white">
            <use xlink:href="#path-1"></use>
        </mask>
    </defs>
    <g id="Deals-/-Deal" stroke="none" stroke-width="1" fill="none" fill-rule="evenodd">
        <g id="Deal---Overview@2x" transform="translate(-210.000000, -746.000000)">
            <g id="Activity" transform="translate(200.000000, 230.000000)">
                <g id="Group-19" transform="translate(0.000000, 511.000000)">
                    <g id="Group-24" transform="translate(10.000000, 5.000000)">
                        <use id="Oval" stroke-opacity="0.195029438" stroke="#000000" mask="url(#mask-2)" stroke-width="2" fill="#F64157" xlink:href="#path-1"></use>
                        <path d="M16.475,14.25 C16.475,11.7480469 11.975,12.2519531 11.975,10.2480469 C11.975,10.2480469 13.475,8.74804688 13.475,6 C13.475,4.34765625 12.1273437,3 10.475,3 C8.82265625,3 7.475,4.34765625 7.475,6 C7.475,8.74804688 8.975,10.2480469 8.975,10.2480469 C8.975,12.2519531 4.475,11.7480469 4.475,14.25 L4.475,14.7480469 C4.475,14.8886719 4.58632812,15 4.72695312,15 L16.2230469,15 C16.3636719,15 16.475,14.8886719 16.475,14.7480469 L16.475,14.25 Z" id="user" fill="#FFFFFF"></path>
                    </g>
                </g>
            </g>
        </g>
    </g>
</svg>