<?xml version="1.0" encoding="UTF-8" standalone="no"?>
<svg width="20px" height="20px" viewBox="0 0 20 20" version="1.1" xmlns="http://www.w3.org/2000/svg" xmlns:xlink="http://www.w3.org/1999/xlink">
    <!-- Generator: Sketch 39.1 (31720) - http://www.bohemiancoding.com/sketch -->
    <title>Group 9</title>
    <desc>Created with Sketch.</desc>
    <defs>
        <circle id="path-1" cx="10" cy="10" r="10"></circle>
        <mask id="mask-2" maskContentUnits="userSpaceOnUse" maskUnits="objectBoundingBox" x="0" y="0" width="20" height="20" fill="white">
            <use xlink:href="#path-1"></use>
        </mask>
    </defs>
    <g id="Symbols" stroke="none" stroke-width="1" fill="none" fill-rule="evenodd">
        <g id="Group-9">
            <use id="Oval" stroke-opacity="0.195029438" stroke="#000000" mask="url(#mask-2)" stroke-width="2" fill="#0BADFF" xlink:href="#path-1"></use>
            <path d="M16,11 C16,9.58203125 15.015625,8.38671875 13.6972656,8.08203125 C13.375,6.3359375 11.8457031,5 10,5 C7.93164062,5 6.25,6.68164062 6.25,8.75 L6.25,8.77929688 C4.97265625,8.9609375 4,10.0566406 4,11.375 C4,12.8222656 5.17773438,14 6.625,14 L8.99804688,14 L8.99804688,11.75 L7.12304688,11.75 C7.02929688,11.75 6.9296875,11.6972656 6.88867188,11.5976562 C6.859375,11.4980469 6.87695312,11.3867188 6.94726562,11.3222656 L10,8.27539062 L13.0527344,11.3222656 C13.1230469,11.3867188 13.140625,11.4980469 13.1113281,11.5976562 C13.0703125,11.6972656 12.9707031,11.75 12.8769531,11.75 L11.0019531,11.75 L11.0019531,14 L13,14 C14.6523438,14 16,12.6523438 16,11 L16,11 Z" id="cloudupload" fill="#FFFFFF"></path>
        </g>
    </g>
</svg>