<?xml version="1.0" encoding="utf-8"?>
<!-- Generator: Adobe Illustrator 22.0.1, SVG Export Plug-In . SVG Version: 6.00 Build 0)  -->
<svg version="1.1" id="Layer_1" xmlns="http://www.w3.org/2000/svg" xmlns:xlink="http://www.w3.org/1999/xlink" x="0px" y="0px"
	 viewBox="0 0 24 24" style="enable-background:new 0 0 24 24;" xml:space="preserve">
<style type="text/css">
	.st0{fill:#EEEEEE;}
	.st1{fill:#FFFFFF;}
	.st2{fill:#878B88;}
	.st3{fill:none;}
	.st4{fill:#666666;}
</style>
<title>Recent Documents</title>
<desc>Created with Sketch.</desc>
<g id="White-Rabbit-Color-Icons">
	<g id="multi-color-_x2F_-doc-_x2F_-document-recent" transform="translate(5.000000, 2.000000)">
		<g id="Group_1_">
			<g id="Page_main">
				<g id="Group">
					<polygon id="Shape" class="st0" points="9.3,0 0,0 0,18 14,18 14,4.5 					"/>
					<polygon id="Shape_1_" class="st1" points="0.6,0.6 8.8,0.6 8.8,5.1 13.4,5.1 13.4,17.4 0.6,17.4 					"/>
				</g>
			</g>
		</g>
		<path id="Shape_2_" class="st2" d="M13.2,4.5l-3.9,0l0-3.7L13.2,4.5z M0.6,17.4V0.6h8.2v4.5h4.7v12.4H0.6z M9.3,0H0.5
			C0.2,0,0,0.2,0,0.5v17C0,17.8,0.2,18,0.5,18H14V4.5L9.3,0z"/>
		<path id="Shape_3_" class="st2" d="M6.8,12.2H2.3c-0.1,0-0.2,0.2-0.2,0.4s0.1,0.4,0.2,0.4h4.4c0.1,0,0.2-0.2,0.2-0.4
			S6.9,12.2,6.8,12.2z"/>
		<path id="Shape_4_" class="st2" d="M8.5,9.9H2.4c-0.2,0-0.3,0.2-0.3,0.4s0.1,0.4,0.3,0.4h6.1c0.2,0,0.3-0.2,0.3-0.4
			S8.7,9.9,8.5,9.9z"/>
		<path id="Shape_5_" class="st2" d="M2.1,8c0,0.2,0.2,0.4,0.4,0.4h7.8c0.2,0,0.4-0.2,0.4-0.4c0-0.2-0.2-0.4-0.4-0.4H2.5
			C2.3,7.7,2.1,7.8,2.1,8z"/>
		<path id="Shape_6_" class="st2" d="M2.5,5.6h3.7c0.2,0,0.4-0.2,0.4-0.4c0-0.2-0.2-0.4-0.4-0.4H2.5C2.3,4.8,2.1,5,2.1,5.2
			C2.1,5.4,2.3,5.6,2.5,5.6z"/>
		<g id="matter-work-list_new" transform="translate(6.000000, 11.000000)">
			<g id="Group_2_">
				<g id="Shape_7_" transform="translate(0.250000, 0.250000)">
					<path class="st1" d="M5,9.6c2.6,0,4.6-2.1,4.6-4.6S7.6,0.4,5,0.4S0.4,2.4,0.4,5S2.4,9.6,5,9.6L5,9.6z"/>
					<path class="st3" d="M5,8.6C3,8.6,1.4,7,1.4,5S3,1.4,5,1.4S8.6,3,8.6,5S7,8.6,5,8.6L5,8.6z"/>
					<g transform="translate(0.714286, 0.714286)">
						<path class="st1" d="M3.6,7.1C1.6,7.1,0,5.5,0,3.6S1.6,0,3.6,0s3.6,1.6,3.6,3.6S5.5,7.1,3.6,7.1z"/>
						<path class="st4" d="M4.4,7.6C3.2,7.6,2.1,7,1.5,6s-0.6-2.3,0-3.3s1.7-1.6,2.8-1.6c1.8,0,3.3,1.5,3.3,3.3S6.2,7.6,4.4,7.6
							L4.4,7.6z M4.4,8.4c2.2,0,4-1.8,4-4s-1.8-4-4-4s-4,1.8-4,4S2.1,8.4,4.4,8.4L4.4,8.4z"/>
					</g>
					<polygon class="st4" points="7.3,5 4.7,5 5,5.3 5,2.7 4.3,2.7 4.3,5.7 7.3,5.7 					"/>
				</g>
			</g>
		</g>
	</g>
</g>
</svg>
