<?xml version="1.0" encoding="utf-8"?>
<!-- Generator: Adobe Illustrator 21.1.0, SVG Export Plug-In . SVG Version: 6.00 Build 0)  -->
<svg version="1.1" id="Layer_1" xmlns="http://www.w3.org/2000/svg" xmlns:xlink="http://www.w3.org/1999/xlink" x="0px" y="0px"
	 viewBox="0 0 32 32" style="enable-background:new 0 0 32 32;" xml:space="preserve">
<style type="text/css">
	.st0{fill:#333D47;}
</style>
<title>Matter workspace</title>
<desc>Created with Sketch.</desc>
<path id="Combined-Shape" class="st0" d="M27.2,7C27.7,7,28,7.3,28,7.7v17.5c0,0.4-0.3,0.7-0.8,0.7H4.8C4.3,26,4,25.7,4,25.3V7.7
	C4,7.3,4.3,7,4.8,7H27.2z M26.5,24.5V8.5h-21v16.1H26.5z M15.2,19.6c-0.5,0.2-1.1,0.4-1.5,0.4c-1.9,0.3-3.8,0-5.5-0.8
	c-0.4-0.1-0.8-0.4-1.3-0.6c-0.2-0.1-0.4-0.2-0.4-0.2c-0.2-0.1-0.3-0.5-0.2-0.7c0-0.1,0-0.1,0-0.1c0.2-0.2,0.4-0.3,0.7-0.1
	c0.1,0,0.2,0.1,0.5,0.2c0.4,0.2,0.8,0.4,1.2,0.6c1.5,0.7,3.2,1,4.9,0.7c0.5-0.1,1-0.3,1.6-0.6l0.1-0.1V17c-0.2-0.1-0.4-0.3-0.5-0.5
	c-0.4-0.7-0.2-1.5,0.5-2c0.7-0.4,1.6-0.2,2,0.5c0.4,0.7,0.2,1.5-0.5,2v0.8c0.3-0.1,0.6-0.1,1-0.2c2-0.2,4.1,0,5.9,0.8
	c0.5,0.1,0.9,0.4,1.4,0.6c0.2,0.1,0.5,0.2,0.5,0.3c0.2,0.1,0.3,0.5,0.1,0.7c-0.1,0.2-0.5,0.3-0.8,0.1c-0.1,0-0.2-0.1-0.4-0.2
	c-0.5-0.2-0.8-0.4-1.3-0.6c-1.7-0.7-3.5-1-5.2-0.7c-0.5,0.1-0.8,0.1-1.2,0.3v1.4c0.2,0.1,0.4,0.3,0.5,0.5c0.5,0.7,0.1,1.5-0.5,2
	c-0.7,0.4-1.6,0.2-2-0.5c-0.5-0.7-0.2-1.5,0.5-2V19.6z"/>
</svg>
