<?xml version="1.0" encoding="utf-8"?>
<!-- Generator: Adobe Illustrator 21.1.0, SVG Export Plug-In . SVG Version: 6.00 Build 0)  -->
<svg version="1.1" id="Layer_1" xmlns="http://www.w3.org/2000/svg" xmlns:xlink="http://www.w3.org/1999/xlink" x="0px" y="0px"
	 viewBox="0 0 32 24" style="enable-background:new 0 0 32 24;" xml:space="preserve">
<style type="text/css">
	.st0{clip-path:url(#SVGID_2_);fill:#F8ECBA;}
	.st1{clip-path:url(#SVGID_4_);fill:#816700;}
	.st2{clip-path:url(#SVGID_6_);fill:#816700;}
</style>
<title>Yellow FOlder</title>
<desc>Created with Sketch.</desc>
<g>
	<g>
		<g>
			<g>
				<g>
					<g>
						<g>
							<defs>
								<polygon id="SVGID_1_" points="3.7,2.6 12.3,2.6 13.8,4.4 28.3,4.6 28.4,21.8 3.7,22.1 								"/>
							</defs>
							<clipPath id="SVGID_2_">
								<use xlink:href="#SVGID_1_"  style="overflow:visible;"/>
							</clipPath>
							<rect x="-3.5" y="-4.6" class="st0" width="39.1" height="34"/>
						</g>
					</g>
				</g>
			</g>
		</g>
	</g>
	<g>
		<g>
			<g>
				<g>
					<g>
						<g>
							<defs>
								<path id="SVGID_3_" d="M20.8,4.1H14l0.3,0.2l-0.9-1.6c-0.3-0.6-1-0.9-1.6-0.9H4.3C3.6,1.9,3,1.9,3,3.4v5.3v0.4h0.4h25.2H29
									V8.8V5.4c0-0.2,0-0.6-0.4-1c-0.3-0.3-0.8-0.3-1.1-0.3H20.8z M28.3,5.4c0,0.4,0,3.3,0,3.3l0.4-0.4H3.8V2.6h7.9
									c0.3,0,0.7,0.2,0.9,0.4l0.9,1.6l0.1,0.2h0.2h6.8c0,0,6.4,0,6.8,0C28.2,4.8,28.3,5.1,28.3,5.4z"/>
							</defs>
							<use xlink:href="#SVGID_3_"  style="overflow:visible;fill:#816700;"/>
							<clipPath id="SVGID_4_">
								<use xlink:href="#SVGID_3_"  style="overflow:visible;"/>
							</clipPath>
							<rect x="-4.3" y="-5.2" class="st1" width="40.6" height="21.7"/>
						</g>
					</g>
				</g>
			</g>
		</g>
	</g>
	<g>
		<g>
			<g>
				<g>
					<g>
						<g>
							<defs>
								<path id="SVGID_5_" d="M29,8.3h-0.4H3.4H3v0.4v12.1C3,21.5,3.6,22,4.2,22h23.6c0.7,0,1.2-0.6,1.2-1.2v-12V8.3z M28.3,20.9
									c0,0.2-0.2,0.4-0.4,0.4H4.2c-0.2,0-0.4-0.2-0.4-0.4V8.8L3.4,9.1h25.3l-0.4-0.3V20.9z"/>
							</defs>
							<use xlink:href="#SVGID_5_"  style="overflow:visible;fill:#816700;"/>
							<clipPath id="SVGID_6_">
								<use xlink:href="#SVGID_5_"  style="overflow:visible;"/>
							</clipPath>
							<rect x="-4.3" y="1.1" class="st2" width="40.6" height="28.3"/>
						</g>
					</g>
				</g>
			</g>
		</g>
	</g>
</g>
</svg>
