<?xml version="1.0" encoding="UTF-8"?>
<svg width="40px" height="40px" viewBox="0 0 40 40" version="1.1" xmlns="http://www.w3.org/2000/svg" xmlns:xlink="http://www.w3.org/1999/xlink">
    <!-- Generator: Sketch 46.1 (44463) - http://www.bohemiancoding.com/sketch -->
    <title>_folder</title>
    <desc>Created with Sketch.</desc>
    <defs>
        <filter x="-7.5%" y="-2.9%" width="115.0%" height="114.7%" filterUnits="objectBoundingBox" id="filter-1">
            <feOffset dx="0" dy="1" in="SourceAlpha" result="shadowOffsetOuter1"></feOffset>
            <feGaussianBlur stdDeviation="0.5" in="shadowOffsetOuter1" result="shadowBlurOuter1"></feGaussianBlur>
            <feColorMatrix values="0 0 0 0 0   0 0 0 0 0   0 0 0 0 0  0 0 0 0.15 0" type="matrix" in="shadowBlurOuter1" result="shadowMatrixOuter1"></feColorMatrix>
            <feMerge>
                <feMergeNode in="shadowMatrixOuter1"></feMergeNode>
                <feMergeNode in="SourceGraphic"></feMergeNode>
            </feMerge>
        </filter>
    </defs>
    <g id="Page-1" stroke="none" stroke-width="1" fill="none" fill-rule="evenodd">
        <g id="_folder">
            <g id="Group" filter="url(#filter-1)" transform="translate(0.000000, 3.000000)">
                <path d="M3,0 L13,0 L18,5 L18,9 L0,9 L0,3 L0,3 L0,3 C-2.02906125e-16,1.34314575 1.34314575,7.48448398e-16 3,4.4408921e-16 Z" id="Rectangle" fill="#FFA000"></path>
                <path d="M2,5 L38,5 L38,5 C39.1045695,5 40,5.8954305 40,7 L40,32 L40,32 C40,33.1045695 39.1045695,34 38,34 L2,34 L2,34 C0.8954305,34 1.3527075e-16,33.1045695 0,32 L0,7 L-2.44249065e-15,7 C-2.5777614e-15,5.8954305 0.8954305,5 2,5 Z" id="Rectangle-62" fill="#FDC620"></path>
            </g>
        </g>
    </g>
</svg>