<svg id="Layer_1" data-name="Layer 1" xmlns="http://www.w3.org/2000/svg" viewBox="0 0 48 48"><defs><style>.cls-1{fill:#949599;}.cls-2{fill:#fff;}.cls-3,.cls-4{fill:none;}.cls-3,.cls-4,.cls-5{stroke:#fff;stroke-miterlimit:10;}.cls-3{stroke-width:1.5px;}.cls-4{stroke-width:0.75px;}.cls-5{fill:#d1d3d4;stroke-width:0.25px;}</style></defs><title>PacketsTracking-grid</title><path class="cls-1" d="M4.38,11.26H19.72a.62.62,0,0,1,.62.62v20a.63.63,0,0,1-.62.63H4.38a.63.63,0,0,1-.62-.62v-20A.63.63,0,0,1,4.38,11.26Z"/><path class="cls-2" d="M19.72,11.63a.25.25,0,0,1,.25.25v20a.25.25,0,0,1-.25.25H4.38a.25.25,0,0,1-.25-.25v-20a.25.25,0,0,1,.25-.25H19.72m0-.75H4.38a1,1,0,0,0-1,1v20a1,1,0,0,0,1,1H19.72a1,1,0,0,0,1-1v-20a1,1,0,0,0-1-1Z"/><rect class="cls-1" x="5.75" y="13.26" width="16.59" height="21.25" rx="0.63" ry="0.63"/><path class="cls-2" d="M21.72,13.63a.25.25,0,0,1,.25.25v20a.25.25,0,0,1-.25.25H6.38a.25.25,0,0,1-.25-.25v-20a.25.25,0,0,1,.25-.25H21.72m0-.75H6.38a1,1,0,0,0-1,1v20a1,1,0,0,0,1,1H21.72a1,1,0,0,0,1-1v-20a1,1,0,0,0-1-1Z"/><rect class="cls-1" x="7.75" y="15.26" width="16.59" height="21.25" rx="0.63" ry="0.63"/><path class="cls-2" d="M23.72,15.63a.25.25,0,0,1,.25.25v20a.25.25,0,0,1-.25.25H8.38a.25.25,0,0,1-.25-.25v-20a.25.25,0,0,1,.25-.25H23.72m0-.75H8.38a1,1,0,0,0-1,1v20a1,1,0,0,0,1,1H23.72a1,1,0,0,0,1-1v-20a1,1,0,0,0-1-1Z"/><line class="cls-3" x1="12.3" y1="22.88" x2="19.8" y2="22.88"/><line class="cls-4" x1="13.41" y1="24.88" x2="18.69" y2="24.88"/><line class="cls-4" x1="13.05" y1="26.17" x2="19.05" y2="26.17"/><path class="cls-1" d="M31.71,25.18v2.75H36V25.18Zm0-3v2.75H36V22.18Zm0,0v2.75H36V22.18Zm0,3v2.75H36V25.18Zm4.5-6.12v2.87h4.25V19.06Zm-8.31,0a.76.76,0,0,0-.42.12.75.75,0,0,0-.27.26.78.78,0,0,0-.13.43v2.06h4.38V19.06Zm3.81,0v2.87H36V19.06ZM45,19.45a.7.7,0,0,0-.27-.27.74.74,0,0,0-.42-.12H40.71v2.87h4.37V19.87A.74.74,0,0,0,45,19.45ZM27.08,22.18v2.75h4.38V22.18Zm9.13,3v2.75h4.25V25.18Zm0,3v2.88h4.25V28.18Zm-9.13,0v2.06a.84.84,0,0,0,.13.44.75.75,0,0,0,.25.25.84.84,0,0,0,.44.13h3.56V28.18Zm0-3v2.75h4.38V25.18Zm4.63,3v2.88H36V28.18Zm9,0v2.88h3.56a.78.78,0,0,0,.43-.13.65.65,0,0,0,.26-.26.8.8,0,0,0,.12-.43V28.18Zm0-3v2.75h4.37V25.18Zm-4.5-3v2.75h4.25V22.18Zm4.5,0v2.75h4.37V22.18Zm-9,0v2.75H36V22.18Zm0,3v2.75H36V25.18Zm0,0v2.75H36V25.18Zm0-3v2.75H36V22.18Z"/><line class="cls-5" x1="33.26" y1="25.95" x2="34.43" y2="27.16"/><line class="cls-5" x1="34.45" y1="25.98" x2="33.24" y2="27.14"/><line class="cls-5" x1="37.74" y1="25.95" x2="38.91" y2="27.16"/><line class="cls-5" x1="38.93" y1="25.98" x2="37.72" y2="27.14"/><line class="cls-5" x1="28.76" y1="22.95" x2="29.93" y2="24.16"/><line class="cls-5" x1="29.95" y1="22.98" x2="28.74" y2="24.14"/><line class="cls-5" x1="37.74" y1="22.95" x2="38.91" y2="24.16"/><line class="cls-5" x1="38.93" y1="22.98" x2="37.72" y2="24.14"/><line class="cls-5" x1="42.24" y1="28.95" x2="43.41" y2="30.16"/><line class="cls-5" x1="43.43" y1="28.98" x2="42.22" y2="30.14"/></svg>