<svg id="Layer_1" data-name="Layer 1" xmlns="http://www.w3.org/2000/svg" viewBox="0 0 48 48"><defs><style>.cls-1{fill:#949599;}.cls-2{fill:#fff;}.cls-3,.cls-4,.cls-5,.cls-6{fill:none;stroke:#fff;stroke-miterlimit:10;}.cls-3{stroke-width:1.5px;}.cls-4{stroke-width:0.75px;}.cls-5{stroke-width:0.2px;}.cls-6{stroke-width:0.3px;}</style></defs><title>Pages</title><rect class="cls-1" x="12.2" y="8.84" width="23.59" height="30.31" rx="0.74" ry="0.74"/><path class="cls-2" d="M35.06,9.22a.36.36,0,0,1,.36.36V38.42a.36.36,0,0,1-.36.36H12.94a.36.36,0,0,1-.36-.36V9.58a.36.36,0,0,1,.36-.36H35.06m0-.75H12.94a1.11,1.11,0,0,0-1.11,1.11V38.42a1.11,1.11,0,0,0,1.11,1.11H35.06a1.11,1.11,0,0,0,1.11-1.11V9.58a1.11,1.11,0,0,0-1.11-1.11Z"/><line class="cls-3" x1="25.13" y1="15.71" x2="32.63" y2="15.71"/><line class="cls-4" x1="25.13" y1="17.71" x2="30.41" y2="17.71"/><line class="cls-4" x1="25.13" y1="19" x2="31.13" y2="19"/><line class="cls-4" x1="32.13" y1="37.25" x2="15.87" y2="37.25"/><line class="cls-4" x1="32.13" y1="37.25" x2="15.87" y2="37.25"/><line class="cls-5" x1="25.13" y1="23.75" x2="32.63" y2="23.75"/><line class="cls-6" x1="25.13" y1="23.22" x2="26.13" y2="22.22"/><line class="cls-6" x1="25.13" y1="22.22" x2="26.13" y2="23.22"/></svg>