<svg id="Layer_1" data-name="Layer 1" xmlns="http://www.w3.org/2000/svg" viewBox="0 0 48 48"><defs><style>.cls-1{fill:#939598;}</style></defs><title>SignaturePage</title><path class="cls-1" d="M19.89,30.06c-.12.66-.48,1-1.81,1.68H2.77a.65.65,0,0,1-.65-.65V29.65c0-1.1.31-1.84,2.94-3.2,2.27-1.18,3.15-1.59,3.26-3.35a12,12,0,0,1-2.56-7.37c0-4.93,3.79-6.1,5.63-6.1S17,10.8,17,15.73a11.89,11.89,0,0,1-2.56,7.37c.11,1.76,1,2.17,3.27,3.35l.39.21A12,12,0,0,0,19.89,30.06Z"/><path class="cls-1" d="M45.88,29.65v1.44a.65.65,0,0,1-.65.65H29.92c-1.33-.72-1.69-1-1.81-1.68a12,12,0,0,0,1.77-3.4l.39-.21c2.28-1.18,3.16-1.59,3.27-3.35A11.89,11.89,0,0,1,31,15.73c0-4.93,3.79-6.1,5.63-6.1s5.63,1.17,5.63,6.1a12,12,0,0,1-2.56,7.37c.11,1.76,1,2.17,3.26,3.35C45.57,27.81,45.88,28.55,45.88,29.65Z"/><path class="cls-1" d="M24,16.26c1.84,0,5.63,1.17,5.63,6.1a11.9,11.9,0,0,1-2.56,7.37c.11,1.75,1,2.16,3.26,3.34,2.63,1.37,2.93,2.11,2.93,3.21v1.44a.64.64,0,0,1-.64.64H15.38a.64.64,0,0,1-.64-.64V36.29c0-1.1.3-1.84,2.93-3.21,2.27-1.18,3.15-1.59,3.26-3.34a11.9,11.9,0,0,1-2.56-7.37C18.37,17.44,22.16,16.26,24,16.26Z"/></svg>