<?xml version="1.0" encoding="utf-8"?>
<!-- Generator: Adobe Illustrator 21.1.0, SVG Export Plug-In . SVG Version: 6.00 Build 0)  -->
<svg version="1.1" id="Layer_1" xmlns="http://www.w3.org/2000/svg" xmlns:xlink="http://www.w3.org/1999/xlink" x="0px" y="0px"
	 viewBox="0 0 150 150" style="enable-background:new 0 0 150 150;" xml:space="preserve">
<style type="text/css">
	.st0{opacity:0.5;fill-rule:evenodd;clip-rule:evenodd;fill:#1E354A;}
	.st1{opacity:0.7;fill-rule:evenodd;clip-rule:evenodd;fill:#1E354A;}
	.st2{opacity:0.9;fill-rule:evenodd;clip-rule:evenodd;fill:#1E354A;}
</style>
<path class="st0" d="M120.2,44.6c3.8-3.8,3.9-10,0.1-13.8c-3.8-3.8-9.9-3.7-13.8,0.1c-3.8,3.8-3.9,10-0.1,13.8
	C110.2,48.5,116.3,48.4,120.2,44.6z M129.5,31.4l7.6,2.8l-2,12l-7.2,0.8c-0.7,1-1.5,2-2.4,2.9c-0.4,0.4-0.9,0.8-1.3,1.2l-0.4,7.7
	l-12,2l-2.7-6.2c-2-0.5-3.9-1.3-5.6-2.5l-7,2l-5.5-10.8l5.1-4.6c-0.1-2,0.2-4,0.8-5.9l-4.1-6.3l8.6-8.6l6.4,3.7
	c1.7-0.6,3.4-0.9,5.1-1l5.1-6.3l10.8,5.5l-1.7,7.5C128.1,28.4,128.9,29.9,129.5,31.4z"/>
<path class="st1" d="M127.5,113.5c3.4-5.8,1.4-13.3-4.5-16.7s-13.3-1.4-16.7,4.5c-3.4,5.8-1.4,13.3,4.5,16.7
	C116.7,121.4,124.1,119.3,127.5,113.5z M134.4,94.5l10.2,1l1.6,15.2l-8.6,3.2c-0.5,1.5-1.1,2.9-1.9,4.3c-0.4,0.7-0.8,1.3-1.2,1.9
	l2.1,9.4l-14,6.2l-5.4-6.7c-2.6,0-5.2-0.4-7.7-1.3l-7.9,4.6l-10.2-11.3l4.7-7.2c-0.8-2.4-1.1-4.9-1-7.4l-7.1-6.3L95.8,87l8.9,2.4
	c1.8-1.2,3.8-2.2,5.9-2.8l4-9.3l14.9,3.2l0.5,9.6C131.8,91.4,133.2,92.9,134.4,94.5z"/>
<path class="st2" d="M61.4,89c9.7-5.6,12.9-17.9,7.4-27.6c-5.6-9.7-17.9-13-27.6-7.4s-12.9,17.9-7.4,27.6S51.7,94.6,61.4,89z
	 M17.4,59.5c1.4-3.9,3.4-7.5,6-10.8l-4.9-12.9L36,25.8l9.2,10.3c4-0.7,8.1-0.6,12,0l8.4-10.3L83.2,36L79,48.7
	c1.2,1.5,2.3,3.1,3.3,4.8c1.1,1.9,2,3.9,2.8,5.9L98,61.7l0,20.2l-13.3,2.8c-1.3,3.4-3.2,6.7-5.6,9.6l4.9,12.9l-17.5,10.1l-9.2-10.3
	c-3.8,0.6-7.7,0.6-11.4,0.1l-9,11l-17.5-10.1l4.4-13.4c-1.3-1.6-2.5-3.2-3.5-5.1c-0.8-1.5-1.6-3-2.2-4.5L3.8,82.6l0-20.2L17.4,59.5z
	"/>
</svg>
